# xmcd
#
# Track frame offsets:
# 150
# 15649
# 36131
# 54762
# 75084
# 99869
# 121188
# 140406
# 154036
# 176383
# 197742
# 217754
# 231939
# 259654
# 280778
# 317135
# 327830
#
# Disc length: 4604 seconds
#
#
# Revision: 6
# Processed by: cddbd v1.5.1PL2 Copyright (c) Steve Scherf et al.
# Submitted via: FreeRIP 2.945 
#
DISCID=cd11fa11
DTITLE=Various Artist - Double Shot Of Blues [CD 1-2)
DYEAR=2000
DGENRE=Bluegrass
TTITLE0=The Georgia Satellites - Keep Your Hands To Yourself
TTITLE1=George Thorogood and The Destroyers - I Drink Alone
TTITLE2=Robert Cray Band - Smoking Gun
TTITLE3=Janis Joplin - Me and Bobby McGee
TTITLE4=Kenny Wayne Shepherd - Blue On Black
TTITLE5=Johnny Diesel and The Injectors - Cry In Shame
TTITLE6=Free - All Right Now
TTITLE7=The Cruel Sea - Better Get A Lawyer, Son
TTITLE8=Canned Heat - On The Road Again
TTITLE9=Lynyrd Skynyrd - Sweet Home Alabama
TTITLE10=Cold Chisel - Forever Now
TTITLE11=Steve Earle - Continental Trailways Blues
TTITLE12=Gary Moore - Still Got The Blues (For You)
TTITLE13=The Allman Brothers Band - Ramblin' Man
TTITLE14=Joe Walsh - Life's Been Good
TTITLE15=Stevie Ray Vaughan - Love Struck Baby
TTITLE16=ZZ Top - La Grange
EXTD=
EXTT0=
EXTT1=
EXTT2=
EXTT3=
EXTT4=
EXTT5=
EXTT6=
EXTT7=
EXTT8=
EXTT9=
EXTT10=
EXTT11=
EXTT12=
EXTT13=
EXTT14=
EXTT15=
EXTT16=
PLAYORDER=
